<svg id="Capa_1" enable-background="new 0 0 512 512" height="512" viewBox="0 0 512 512" width="512" xmlns="http://www.w3.org/2000/svg"><g><g><g><path d="m494.5 256c0 137.243-101.257 247.5-238.5 247.5-5.037 0-10.038.85-15.001.555-130.258-7.756-233.499-115.849-233.499-248.055s103.241-240.299 233.499-248.055c4.963-.295 9.964.555 15.001.555 137.243 0 238.5 110.257 238.5 247.5z" fill="#5f5261"/><path d="m256 7.5c-5.038 0-10.036.168-15 .464 130.256 7.757 233.5 115.831 233.5 248.036s-103.244 240.279-233.5 248.036c4.964.296 9.962.464 15 .464 137.243 0 248.5-111.257 248.5-248.5s-111.257-248.5-248.5-248.5z" fill="#4d3e4f"/><path d="m301.049 328.927c-65.368 0-117.977-52.608-117.977-117.977 0-49.887 30.964-92.539 74.721-109.792 4.327-1.706 3.106-8.177-1.546-8.184-.083 0-.165 0-.248 0-28.835 0-55.921 7.486-79.421 20.62-8.722 4.875-16.949 12.527-24.589 18.864-6.093 5.053-11.811 8.542-17.109 14.418-26.048 28.895-41.905 67.158-41.905 109.124 0 84.658 63.917 153.866 146.313 162.186 5.493.555 11.068-.161 16.712-.161 90.036 0 161.024-69.989 161.024-160.025 0-.083 0-.165 0-.248-.007-4.651-4.478-5.873-6.184-1.546-5.984 15.177-15.024 26.815-26.362 38.156-21.348 21.356-50.846 34.565-83.429 34.565z" fill="#ffa54d"/><g><path d="m419.025 255.752c-.007-4.651-6.478-5.873-8.184-1.546-5.984 15.177-15.029 28.81-26.366 40.151-16.118 66.826-73.396 117.594-143.508 123.977 4.951.449 9.963.69 15.034.69 41.966 0 80.228-15.857 109.122-41.906 7.367-6.641 11.125-11.946 17.18-19.818 5.027-6.536 12.57-15.465 16.574-22.731 12.841-23.302 20.148-50.082 20.148-78.569 0-.083 0-.165 0-.248z" fill="#ff924c"/></g><path d="m371.199 166.304-18.621 9.79c-3.151 1.656-6.834-1.019-6.232-4.528l3.556-20.735c.239-1.393-.223-2.815-1.235-3.802l-15.065-14.684c-2.549-2.485-1.143-6.814 2.38-7.326l20.819-3.025c1.399-.203 2.608-1.082 3.234-2.35l2.662-5.394 6.648-10.471c1.576-3.192 6.127-3.192 7.703 0l6.311 16.865c.626 1.268 1.835 2.146 3.234 2.35l13.819 3.025c3.523.512 4.93 4.841 2.38 7.326l-8.065 12.684c-1.012.987-1.474 2.408-1.235 3.802l4.556 18.735c.602 3.509-3.081 6.184-6.232 4.528l-13.378-5.085-3.243-1.705c-1.25-.658-2.745-.658-3.996 0z" fill="#ffa54d"/><g><path d="m412.793 132.345c2.549-2.485 1.143-6.814-2.38-7.326l-20.819-3.025c-1.399-.203-2.608-1.082-3.234-2.349l-9.311-18.865c-1.575-3.192-6.127-3.192-7.703 0l-6.648 13.471 2.662 5.394c.626 1.268 1.835 2.146 3.234 2.349l20.819 3.025c3.523.512 4.93 4.841 2.38 7.326l-15.064 14.684c-1.012.987-1.474 2.408-1.235 3.802l2.946 17.178 15.378 8.085c3.151 1.657 6.834-1.019 6.232-4.528l-3.556-20.735c-.239-1.393.223-2.815 1.235-3.802z" fill="#ff924c"/></g></g></g><g><path d="m437.02 74.981c-48.352-48.352-112.64-74.981-181.02-74.981s-132.668 26.629-181.02 74.981c-48.351 48.352-74.98 112.639-74.98 181.019s26.629 132.668 74.98 181.02c48.352 48.351 112.64 74.98 181.02 74.98 59.904 0 118.171-21.122 164.065-59.475 3.178-2.656 3.601-7.386.945-10.564s-7.386-3.602-10.564-.945c-43.201 36.102-98.051 55.984-154.446 55.984-64.374 0-124.894-25.068-170.413-70.587s-70.587-106.039-70.587-170.413 25.068-124.894 70.587-170.413 106.039-70.587 170.413-70.587 124.894 25.068 170.413 70.587 70.587 106.04 70.587 170.413c0 60.618-22.587 118.551-63.601 163.129-2.805 3.048-2.606 7.793.441 10.598 3.049 2.804 7.793 2.606 10.598-.441 43.568-47.355 67.562-108.895 67.562-173.286 0-68.38-26.629-132.667-74.98-181.019z"/><path d="m421.013 125.624c-1.398-4.301-5.047-7.376-9.522-8.026l-19.151-2.783-8.564-17.354c-2.001-4.056-6.054-6.575-10.576-6.575-4.523 0-8.576 2.52-10.577 6.575l-8.564 17.355-19.151 2.782c-4.476.65-8.124 3.726-9.522 8.027-1.397 4.301-.254 8.935 2.984 12.092l13.858 13.508-3.27 19.072c-.766 4.458 1.031 8.878 4.69 11.537 2.068 1.503 4.487 2.266 6.923 2.266 1.875 0 3.759-.452 5.5-1.367l17.129-9.006 17.131 9.006c4.005 2.104 8.764 1.759 12.423-.9 3.658-2.659 5.455-7.08 4.69-11.535l-3.272-19.074 13.858-13.509c3.237-3.157 4.38-7.79 2.983-12.091zm-28.519 16.034c-2.782 2.711-4.05 6.615-3.394 10.441l2.459 14.335-12.873-6.768c-3.436-1.808-7.539-1.809-10.977 0v-.001l-12.873 6.768 2.458-14.333c.657-3.828-.61-7.732-3.392-10.442l-10.414-10.151 14.393-2.091c3.841-.559 7.16-2.97 8.88-6.452l6.436-13.041 6.438 13.042c1.719 3.48 5.038 5.892 8.881 6.451l14.392 2.091z"/><path d="m416.966 244.243c-5.613-1.063-11.008 1.902-13.102 7.212-8.042 20.399-21.858 37.812-39.953 50.357-18.511 12.833-40.247 19.615-62.861 19.615-56.675 0-103.9-42.382-109.852-98.586-.436-4.119-4.123-7.104-8.248-6.669-4.119.436-7.105 4.129-6.668 8.248 6.761 63.855 60.399 112.008 124.768 112.007 25.683 0 50.375-7.707 71.407-22.288 15.938-11.049 28.952-25.427 38.252-42.139-2.627 25.589-11.488 49.358-25.03 69.763-3.778 5.694-8.687 10.542-14.393 14.302-25.326 16.689-54.578 25.46-85.285 25.46-21.756 0-42.771-4.36-62.463-12.96-3.859-1.685-8.362.134-9.954 4.06-1.552 3.828.487 8.182 4.275 9.827 21.503 9.339 44.427 14.073 68.142 14.073 17.454 0 34.478-2.593 50.7-7.631-23.542 14.349-51.17 22.63-80.7 22.631-41.671 0-80.763-16.142-110.073-45.453-29.311-29.311-45.452-68.401-45.452-110.072 0-29.545 8.288-57.187 22.65-80.737-5.046 16.233-7.65 33.268-7.65 50.737 0 55.494 26.995 107.645 72.212 139.503 1.313.925 2.82 1.37 4.313 1.37 2.357 0 4.678-1.108 6.138-3.181 2.386-3.386 1.575-8.065-1.811-10.451-41.233-29.053-65.851-76.619-65.851-127.241 0-30.711 8.772-59.967 25.465-85.295 3.761-5.706 8.61-10.615 14.305-14.393 20.413-13.544 44.192-22.403 69.792-25.024-33.413 18.642-56.994 51.938-62.96 90.174-.639 4.093 2.161 7.928 6.254 8.566 4.089.646 7.928-2.161 8.566-6.254 6.007-38.497 32.311-71.311 68.646-85.638 5.31-2.093 8.275-7.481 7.212-13.103-1.063-5.619-5.792-9.55-11.465-9.558h-.292c-94.027 0-170.524 76.497-170.524 170.525 0 45.677 17.702 88.535 49.846 120.679 32.143 32.144 75.002 49.846 120.68 49.846 94.027 0 170.523-76.498 170.523-170.525v-.259c-.009-5.706-3.939-10.434-9.559-11.498z"/></g></g></svg>